<?xml version="1.0" standalone="no"?>
<!DOCTYPE svg PUBLIC "-//W3C//DTD SVG 20010904//EN"
 "http://www.w3.org/TR/2001/REC-SVG-20010904/DTD/svg10.dtd">
<svg version="1.0" xmlns="http://www.w3.org/2000/svg"
 width="16.000000pt" height="16.000000pt" viewBox="0 0 16.000000 16.000000"
 preserveAspectRatio="xMidYMid meet">
<metadata>
Created by potrace 1.11, written by Peter Selinger 2001-2013
</metadata>
<g transform="translate(0.000000,16.000000) scale(0.006250,-0.006250)"
fill="#000000" stroke="none">
<path d="M783 2519 c-29 -11 -52 -48 -48 -79 2 -14 11 -72 20 -129 17 -102 16
-104 -3 -124 -20 -20 -53 -23 -157 -12 -16 1 -73 5 -125 9 -52 4 -104 9 -115
11 -11 2 -66 7 -122 10 -101 7 -102 7 -126 -19 -14 -14 -23 -36 -22 -48 1 -13
3 -29 4 -35 3 -34 54 -47 225 -58 49 -4 107 -8 130 -10 116 -11 257 -22 302
-24 28 -1 63 -31 68 -56 10 -58 16 -93 20 -120 3 -16 15 -86 27 -155 24 -134
26 -179 12 -189 -4 -3 -83 -56 -174 -118 -92 -61 -169 -119 -173 -128 -21 -57
22 -122 74 -111 16 3 81 40 143 81 154 103 185 99 202 -25 3 -25 8 -58 12 -75
3 -16 7 -39 9 -50 1 -11 10 -63 19 -115 9 -52 18 -108 21 -125 2 -16 7 -41 9
-55 3 -14 8 -36 10 -50 10 -51 8 -91 -6 -106 -14 -13 -921 -414 -938 -414 -20
0 -54 -52 -53 -81 2 -64 61 -89 132 -57 40 18 73 33 285 125 83 35 174 75 203
89 29 13 55 24 57 24 2 0 30 12 62 26 32 15 103 46 158 70 92 39 101 41 126
28 30 -15 29 -12 59 -194 27 -160 50 -195 124 -176 19 5 60 58 52 67 -2 2 -7
24 -10 49 -3 25 -8 56 -11 70 -25 142 -38 218 -39 235 -2 23 14 65 25 65 4 0
36 13 71 29 35 16 128 56 208 90 80 34 165 71 190 83 25 11 59 26 75 33 17 8
180 79 364 159 184 80 341 151 348 159 24 23 25 62 2 90 -18 24 -50 38 -119
51 -14 3 -70 14 -125 26 -55 12 -108 23 -118 25 -10 2 -26 6 -35 9 -9 3 -28 7
-42 10 -14 2 -70 14 -125 26 -55 12 -109 24 -120 26 -11 2 -31 6 -45 9 -28 7
-54 13 -85 19 -11 3 -54 12 -95 21 -41 9 -84 18 -95 21 -11 2 -32 6 -47 9 -45
8 -155 35 -172 41 -8 3 -19 19 -25 34 -8 23 -6 33 7 49 9 11 141 103 292 204
151 101 280 194 286 207 7 12 9 33 5 48 -12 45 -47 61 -151 67 -52 4 -105 8
-117 10 -12 2 -73 7 -135 10 -62 4 -121 9 -132 11 -10 2 -62 6 -115 10 -53 3
-107 8 -121 9 -14 2 -44 4 -67 4 -68 2 -84 32 -109 213 -3 21 -7 47 -9 56 -2
9 -4 27 -4 39 -1 27 -39 72 -66 77 -11 2 -30 0 -42 -5z m377 -543 c30 -3 91
-8 135 -11 110 -9 122 -13 135 -45 10 -24 9 -33 -3 -51 -16 -22 -314 -226
-338 -230 -32 -6 -59 13 -68 49 -28 110 -45 233 -36 263 8 25 38 37 84 33 20
-2 61 -5 91 -8z m38 -642 c15 -3 77 -16 137 -29 280 -61 440 -96 555 -120 69
-15 135 -33 146 -41 30 -18 36 -61 13 -83 -10 -9 -197 -95 -414 -189 -368
-160 -398 -172 -422 -160 -30 15 -38 37 -58 163 -1 11 -5 34 -8 50 -30 160
-57 332 -57 359 0 19 6 38 13 44 14 12 49 20 60 15 4 -3 20 -6 35 -9z"/>
</g>
</svg>
